<svg width="20" height="20" viewBox="0 0 20 20" fill="none" xmlns="http://www.w3.org/2000/svg">
<path d="M11.1328 18.823C8.42249 17.5093 6.04785 15.6527 4.0752 13.2947C2.45067 11.3427 1.35659 9.51513 0.631356 7.54662C0.158915 6.27435 -0.0234305 5.22172 0.0553097 4.23125C0.121617 3.4397 0.440722 2.75591 1.00434 2.19229L2.55427 0.642354C2.9977 0.219644 3.5033 0 4.02962 0C4.56008 0 5.06153 0.219644 5.48838 0.63821C5.77019 0.899296 6.05614 1.18939 6.32966 1.4712L6.34108 1.48296C6.47796 1.62387 6.61124 1.76107 6.75237 1.9022L7.98734 3.13717C8.43906 3.58475 8.67528 4.10278 8.67528 4.62909C8.67528 5.15541 8.43492 5.67344 7.98734 6.12101C7.85887 6.24948 7.7304 6.37795 7.60608 6.50642C7.25382 6.86697 6.88913 7.23581 6.49957 7.58807C6.77723 8.23042 7.17508 8.86034 7.7677 9.61044C8.94051 11.0485 10.1672 12.1674 11.5182 13.0253C11.655 13.1123 11.8083 13.191 11.9741 13.2739C12.1067 13.3402 12.2476 13.4107 12.3844 13.4894L13.868 12.0058C14.3031 11.5707 14.8129 11.3386 15.3433 11.3386C15.8738 11.3386 16.3794 11.5707 16.8021 12.0099L19.2928 14.5006C20.1838 15.3916 20.1838 16.5603 19.3011 17.4803C19.1104 17.6792 18.9115 17.874 18.7167 18.0605C18.4308 18.3382 18.1573 18.5993 17.9169 18.8893C17.9127 18.8976 17.9045 18.9059 17.9003 18.9101C17.2248 19.6436 16.396 20 15.3641 20C15.2725 20 15.1848 19.9962 15.0936 19.9922L15.0822 19.9917C13.5447 19.8923 12.1647 19.3121 11.1328 18.823Z" fill="#5CB523"/>
</svg>
