<svg width="16" height="19" viewBox="0 0 16 19" fill="none" xmlns="http://www.w3.org/2000/svg">
<path d="M5.00034 2.00259C4.73511 2.00259 4.48073 2.10795 4.29319 2.2955C4.10564 2.48305 4.00027 2.73742 4.00027 3.00265C4.00027 3.26789 4.10564 3.52226 4.29319 3.70981C4.48073 3.89736 4.73511 4.00272 5.00034 4.00272C5.26557 4.00272 5.51995 3.89736 5.7075 3.70981C5.89504 3.52226 6.00041 3.26789 6.00041 3.00265C6.00041 2.73742 5.89504 2.48305 5.7075 2.2955C5.51995 2.10795 5.26557 2.00259 5.00034 2.00259ZM2.17015 2.00259C2.37676 1.41701 2.75993 0.909946 3.26682 0.551278C3.77372 0.192609 4.37938 0 5.00034 0C5.6213 0 6.22696 0.192609 6.73386 0.551278C7.24075 0.909946 7.62392 1.41701 7.83053 2.00259H15.001C15.2663 2.00259 15.5206 2.10795 15.7082 2.2955C15.8957 2.48305 16.0011 2.73742 16.0011 3.00265C16.0011 3.26789 15.8957 3.52226 15.7082 3.70981C15.5206 3.89736 15.2663 4.00272 15.001 4.00272H7.83053C7.62392 4.5883 7.24075 5.09536 6.73386 5.45403C6.22696 5.8127 5.6213 6.00531 5.00034 6.00531C4.37938 6.00531 3.77372 5.8127 3.26682 5.45403C2.75993 5.09536 2.37676 4.5883 2.17015 4.00272H1.00007C0.734834 4.00272 0.480462 3.89736 0.292913 3.70981C0.105364 3.52226 0 3.26789 0 3.00265C0 2.73742 0.105364 2.48305 0.292913 2.2955C0.480462 2.10795 0.734834 2.00259 1.00007 2.00259H2.17015ZM11.0007 8.003C10.7355 8.003 10.4811 8.10836 10.2936 8.29591C10.106 8.48346 10.0007 8.73783 10.0007 9.00306C10.0007 9.2683 10.106 9.52267 10.2936 9.71022C10.4811 9.89777 10.7355 10.0031 11.0007 10.0031C11.266 10.0031 11.5204 9.89777 11.7079 9.71022C11.8955 9.52267 12.0008 9.2683 12.0008 9.00306C12.0008 8.73783 11.8955 8.48346 11.7079 8.29591C11.5204 8.10836 11.266 8.003 11.0007 8.003ZM8.17056 8.003C8.37717 7.41742 8.76033 6.91035 9.26723 6.55169C9.77413 6.19302 10.3798 6.00041 11.0007 6.00041C11.6217 6.00041 12.2274 6.19302 12.7343 6.55169C13.2412 6.91035 13.6243 7.41742 13.8309 8.003H15.001C15.2663 8.003 15.5206 8.10836 15.7082 8.29591C15.8957 8.48346 16.0011 8.73783 16.0011 9.00306C16.0011 9.2683 15.8957 9.52267 15.7082 9.71022C15.5206 9.89777 15.2663 10.0031 15.001 10.0031H13.8309C13.6243 10.5887 13.2412 11.0958 12.7343 11.4544C12.2274 11.8131 11.6217 12.0057 11.0007 12.0057C10.3798 12.0057 9.77413 11.8131 9.26723 11.4544C8.76033 11.0958 8.37717 10.5887 8.17056 10.0031H1.00007C0.734834 10.0031 0.480462 9.89777 0.292913 9.71022C0.105364 9.52267 0 9.2683 0 9.00306C0 8.73783 0.105364 8.48346 0.292913 8.29591C0.480462 8.10836 0.734834 8.003 1.00007 8.003H8.17056ZM5.00034 14.0034C4.73511 14.0034 4.48073 14.1088 4.29319 14.2963C4.10564 14.4839 4.00027 14.7382 4.00027 15.0035C4.00027 15.2687 4.10564 15.5231 4.29319 15.7106C4.48073 15.8982 4.73511 16.0035 5.00034 16.0035C5.26557 16.0035 5.51995 15.8982 5.7075 15.7106C5.89504 15.5231 6.00041 15.2687 6.00041 15.0035C6.00041 14.7382 5.89504 14.4839 5.7075 14.2963C5.51995 14.1088 5.26557 14.0034 5.00034 14.0034ZM2.17015 14.0034C2.37676 13.4178 2.75993 12.9108 3.26682 12.5521C3.77372 12.1934 4.37938 12.0008 5.00034 12.0008C5.6213 12.0008 6.22696 12.1934 6.73386 12.5521C7.24075 12.9108 7.62392 13.4178 7.83053 14.0034H15.001C15.2663 14.0034 15.5206 14.1088 15.7082 14.2963C15.8957 14.4839 16.0011 14.7382 16.0011 15.0035C16.0011 15.2687 15.8957 15.5231 15.7082 15.7106C15.5206 15.8982 15.2663 16.0035 15.001 16.0035H7.83053C7.62392 16.5891 7.24075 17.0962 6.73386 17.4548C6.22696 17.8135 5.6213 18.0061 5.00034 18.0061C4.37938 18.0061 3.77372 17.8135 3.26682 17.4548C2.75993 17.0962 2.37676 16.5891 2.17015 16.0035H1.00007C0.734834 16.0035 0.480462 15.8982 0.292913 15.7106C0.105364 15.5231 0 15.2687 0 15.0035C0 14.7382 0.105364 14.4839 0.292913 14.2963C0.480462 14.1088 0.734834 14.0034 1.00007 14.0034H2.17015Z" fill="#3A3A3A"/>
</svg>
