<svg width="268" height="31" viewBox="0 0 268 31" fill="none" xmlns="http://www.w3.org/2000/svg">
<path d="M52.3706 25.4058C52.3706 18.5799 52.3747 11.7539 52.3706 4.92798C52.687 4.93625 53.0033 4.94038 53.3279 4.94038C57.2104 9.25673 61.1258 13.5483 65.0001 17.8688C64.9836 13.7757 65.0001 9.68258 64.9877 5.58949C66.2203 5.58535 67.461 5.59776 68.6936 5.58122C68.6771 12.4072 68.6854 19.2331 68.6854 26.0591C68.3526 26.0177 67.9746 26.1376 67.6706 25.9805C63.8004 21.7097 59.9425 17.4222 56.0641 13.1555C56.0559 17.2362 56.0641 21.3169 56.06 25.4017C54.8316 25.4058 53.599 25.4058 52.3706 25.4058Z" fill="black" stroke="black" stroke-width="0.6616" stroke-miterlimit="10"/>
<path d="M78.9895 6.24279C80.7521 5.46552 82.7241 5.19265 84.6264 5.46965C86.5532 5.74666 88.3486 6.65624 89.8606 7.88003C89.1375 8.78547 88.4144 9.69091 87.6872 10.5922C86.582 9.81495 85.3864 9.05421 84.0142 8.88883C82.19 8.64904 80.2714 9.20719 78.895 10.4475C77.4406 11.7292 76.6189 13.6806 76.6723 15.6197C76.6847 17.4182 77.453 19.196 78.7595 20.4198C80.1153 21.718 82.0586 22.3423 83.9156 22.1108C85.3002 21.9371 86.5368 21.2012 87.6502 20.395C88.3856 21.3252 89.1251 22.2513 89.8523 23.1816C88.3527 24.2855 86.6847 25.2405 84.8236 25.5134C82.1613 25.9268 79.3305 25.3067 77.1366 23.7108C75.181 22.3258 73.7348 20.2131 73.176 17.8688C72.6296 15.6445 72.872 13.2217 73.8786 11.1628C74.9221 8.97566 76.7792 7.20198 78.9895 6.24279Z" fill="black" stroke="black" stroke-width="0.6616" stroke-miterlimit="10"/>
<path d="M24.5728 5.5896C27.0954 5.60614 29.618 5.58547 32.1324 5.59787C33.8661 5.62268 35.641 6.24284 36.8777 7.49971C37.9993 8.61187 38.595 10.216 38.5293 11.7913C38.5005 13.2176 37.9171 14.6316 36.9146 15.6445C35.7067 16.8931 33.9688 17.5381 32.2474 17.5712C30.9532 17.6043 29.6673 17.5712 28.3772 17.5919C28.3567 17.6084 28.3115 17.6539 28.2827 17.6746C28.2786 20.2544 28.2827 22.8302 28.2786 25.4101C27.0461 25.4101 25.8217 25.4101 24.5851 25.4101C24.581 18.7991 24.6097 12.1923 24.5728 5.5896ZM28.2745 8.94676C28.295 10.6915 28.2827 12.4404 28.2786 14.181C29.2441 14.2595 30.2219 14.1975 31.1874 14.2182C32.0707 14.2347 33.0362 14.2388 33.7634 13.6642C34.8152 12.9075 35.0699 11.3241 34.4126 10.2284C33.9442 9.42635 33.0198 8.97984 32.1159 8.9633C30.8382 8.93436 29.5522 8.9633 28.2745 8.94676Z" fill="black" stroke="black" stroke-width="0.6616" stroke-miterlimit="10"/>
<path d="M42.8965 5.59372C44.1249 5.58958 45.3657 5.60199 46.6064 5.58545C46.5777 12.1923 46.6023 18.7991 46.5941 25.4059C45.3657 25.4059 44.129 25.4059 42.9006 25.4059C42.8965 18.8032 42.9047 12.1964 42.8965 5.59372Z" fill="black" stroke="black" stroke-width="0.6616" stroke-miterlimit="10"/>
<path d="M93.665 5.5896C94.9099 5.59787 96.1548 5.59787 97.3997 5.5896C97.3504 8.23977 97.4079 10.8941 97.3668 13.5443C100.029 13.5401 102.691 13.5277 105.354 13.5567C105.304 10.8982 105.354 8.24804 105.325 5.59373C106.566 5.59373 107.806 5.602 109.043 5.5896C109.01 12.1964 109.039 18.8033 109.027 25.4101C107.798 25.4101 106.566 25.4101 105.333 25.4101C105.333 22.5656 105.325 19.7294 105.337 16.8931C102.683 16.9221 100.029 16.8766 97.3791 16.918C97.3832 19.7459 97.3791 22.578 97.3791 25.4142C96.1507 25.4142 94.9181 25.4142 93.6856 25.4142C93.6733 18.7991 93.7061 12.1923 93.665 5.5896Z" fill="black" stroke="black" stroke-width="0.6616" stroke-miterlimit="10"/>
<path d="M216.854 5.13086C219.204 4.84145 221.648 5.34171 223.678 6.58618C225.987 7.96708 227.741 10.2824 228.398 12.916C229.011 15.3181 228.744 17.9476 227.622 20.1637C226.669 22.0614 225.124 23.6449 223.263 24.6495C220.58 26.1338 217.24 26.3571 214.376 25.2573C212.211 24.4511 210.325 22.9048 209.117 20.9203C207.651 18.5636 207.211 15.5868 207.918 12.8953C208.924 8.78156 212.671 5.57738 216.854 5.13086ZM216.85 8.76503C215.588 9.01309 214.397 9.64566 213.489 10.5676C211.977 12.0478 211.262 14.2804 211.541 16.3807C211.755 18.2081 212.7 19.9487 214.175 21.0443C215.679 22.2019 217.7 22.6195 219.553 22.2226C221.225 21.8795 222.737 20.8252 223.678 19.3947C225.535 16.6453 225.099 12.5604 222.601 10.3485C221.077 8.93867 218.871 8.35158 216.85 8.76503Z" fill="black" stroke="black" stroke-width="0.6616" stroke-miterlimit="10"/>
<path d="M167.162 5.28467C169.503 5.30534 171.841 5.28053 174.183 5.29707C176.903 5.30947 179.631 6.38443 181.55 8.34002C184.902 11.5897 185.403 17.2456 182.823 21.1113C180.987 23.9392 177.688 25.655 174.343 25.7088C171.948 25.7295 169.561 25.7129 167.166 25.7212C167.162 18.9076 167.162 12.0941 167.162 5.28467ZM170.974 22.2524C172.581 22.1904 174.236 22.4343 175.802 21.9423C177.589 21.4007 179.146 20.0942 179.939 18.3867C180.859 16.427 180.773 14.0125 179.688 12.1354C178.62 10.2749 176.623 9.0098 174.508 8.80307C173.333 8.69971 172.145 8.79067 170.966 8.74519C170.978 13.2435 170.97 17.7459 170.974 22.2524Z" fill="black" stroke="black" stroke-width="0.6616" stroke-miterlimit="10"/>
<path d="M188.842 5.28369C190.978 5.29196 193.11 5.28369 195.243 5.28783C196.34 5.29196 197.457 5.23821 198.538 5.48214C200.058 5.78396 201.512 6.59017 202.449 7.85945C203.821 9.68687 204.047 12.3288 202.959 14.3464C202.19 15.8224 200.748 16.9428 199.097 17.2074C201.434 20.0478 203.813 22.8592 206.134 25.7202C204.573 25.7202 203.012 25.7202 201.447 25.7202C198.682 22.2101 195.859 18.7413 193.102 15.227C193.102 14.9541 193.102 14.6854 193.102 14.4167C194.232 14.4415 195.362 14.4332 196.492 14.4208C197.429 14.4167 198.415 14.1438 199.076 13.4409C200.005 12.4776 199.996 10.8073 199.134 9.8109C198.513 9.10805 197.568 8.80623 196.656 8.76902C195.321 8.73181 193.986 8.78556 192.65 8.74421C192.667 14.4001 192.65 20.0602 192.654 25.7202C191.385 25.7202 190.111 25.7202 188.842 25.7202C188.842 18.9067 188.842 12.0931 188.842 5.28369Z" fill="black" stroke="black" stroke-width="0.6616" stroke-miterlimit="10"/>
<path d="M233.144 5.28348C235.588 5.29175 238.041 5.28348 240.494 5.28762C242.708 5.20493 245.042 6.07316 246.385 7.91298C247.716 9.7156 247.897 12.2831 246.854 14.2676C246.015 15.909 244.376 17.046 242.593 17.4429C240.744 17.8315 238.83 17.5793 236.948 17.6537C236.948 20.3411 236.948 23.0285 236.948 25.72C235.678 25.72 234.405 25.72 233.144 25.72C233.144 18.9065 233.144 12.0929 233.144 5.28348ZM236.952 14.1808C238.238 14.1725 239.516 14.1932 240.802 14.1767C241.521 14.1725 242.252 13.9575 242.786 13.4655C243.838 12.556 243.941 10.7823 243.037 9.728C242.494 9.07063 241.628 8.76468 240.789 8.76054C239.508 8.73574 238.226 8.77295 236.948 8.73987C236.96 10.5549 236.952 12.3699 236.952 14.1808Z" fill="black" stroke="black" stroke-width="0.6616" stroke-miterlimit="10"/>
<path d="M153.948 0H123.143V31H153.948V0Z" fill="#E73137"/>
<path d="M133.71 7.09872C135.859 5.95761 138.714 6.40413 140.424 8.14473C139.811 8.93441 139.228 9.74889 138.62 10.5468C138.032 9.91013 137.231 9.35612 136.319 9.414C135.571 9.37679 134.754 9.86879 134.668 10.6626C134.569 11.3034 135.013 11.8244 135.411 12.2544C137.309 14.1934 139.162 16.1614 141.036 18.1253C141.266 17.0544 141.184 15.9009 140.645 14.9417C139.951 14.9417 139.873 14.9583 139.179 14.9252C139.195 14.0322 139.146 13.1309 139.207 12.2378C141.837 12.2461 143.862 12.2378 146.5 12.2378C146.525 13.1433 146.516 14.0446 146.508 14.9417C145.592 14.9335 144.688 14.9541 143.768 14.9293C144.298 16.7113 143.994 18.671 143.139 20.3C144.405 21.6313 145.666 22.9791 146.919 24.3228C145.51 24.3269 144.088 24.3228 142.671 24.3228C142.178 23.7977 141.701 23.2644 141.2 22.7434C140.029 23.7729 138.53 24.4633 136.977 24.513C135.177 24.5956 133.267 24.1491 131.903 22.9005C130.67 21.7636 129.935 20.0064 130.226 18.3154C130.497 16.6162 131.607 15.1609 132.967 14.1727C132.182 13.2797 131.537 12.1841 131.475 10.9603C131.348 9.37266 132.326 7.83051 133.71 7.09872ZM133.394 19.2664C133.71 20.7134 135.198 21.6271 136.607 21.6395C137.568 21.7264 138.456 21.2633 139.216 20.7134C137.819 19.2209 136.397 17.7532 135.013 16.2482C133.994 16.8477 133.139 18.0178 133.394 19.2664Z" fill="white"/>
<path d="M13.1019 22.0946H0L6.55302 8.90991L13.1019 22.0946Z" fill="#E73137"/>
<path d="M268 15.4999C268 18.5221 265.556 20.978 262.552 20.978C259.545 20.978 257.104 18.5221 257.104 15.4999C257.104 12.4776 259.545 10.0259 262.552 10.0259C265.556 10.0259 268 12.4776 268 15.4999Z" fill="#E73137"/>
</svg>
