<svg width="48" height="48" viewBox="0 0 48 48" fill="none" xmlns="http://www.w3.org/2000/svg">
<circle cx="24" cy="24" r="24" fill="#231F20"/>
<g clip-path="url(#clip0)">
<path d="M19.2604 26.6357C20.8385 28.5222 22.7382 30.0075 24.9064 31.0584C25.732 31.4496 26.836 31.9138 28.066 31.9934C28.1422 31.9967 28.2152 32 28.2914 32C29.117 32 29.78 31.7149 30.3204 31.1281C30.3238 31.1247 30.3304 31.1181 30.3337 31.1115C30.526 30.8794 30.7448 30.6705 30.9736 30.4484C31.1294 30.2992 31.2885 30.1434 31.441 29.9843C32.1472 29.2482 32.1472 28.3133 31.4344 27.6005L29.4419 25.608C29.1037 25.2565 28.6992 25.0709 28.2749 25.0709C27.8505 25.0709 27.4427 25.2565 27.0946 25.6046L25.9077 26.7915C25.7983 26.7286 25.6856 26.6722 25.5795 26.6191C25.4468 26.5528 25.3242 26.4898 25.2148 26.4202C24.134 25.7339 23.1526 24.8388 22.2144 23.6884C21.7403 23.0883 21.422 22.5843 21.1999 22.0705C21.5115 21.7886 21.8032 21.4936 22.0851 21.2051C22.1845 21.1024 22.2873 20.9996 22.3901 20.8968C22.7481 20.5387 22.9404 20.1243 22.9404 19.7033C22.9404 19.2822 22.7514 18.8678 22.3901 18.5097L21.4021 17.5218C21.2861 17.4057 21.1766 17.293 21.0639 17.177C20.8451 16.9515 20.6163 16.7194 20.3909 16.5106C20.0494 16.1757 19.6483 16 19.2239 16C18.8028 16 18.3984 16.1757 18.0436 16.5139L16.8037 17.7538C16.3528 18.2047 16.0975 18.7518 16.0444 19.385C15.9815 20.1774 16.1273 21.0195 16.5053 22.0373C17.0855 23.6121 17.9607 25.0742 19.2604 26.6357Z" fill="white"/>
</g>
<defs>
<clipPath id="clip0">
<rect width="16" height="16" fill="white" transform="translate(16 16)"/>
</clipPath>
</defs>
</svg>
